<svg width="500" height="531" viewBox="0 0 500 531" fill="none" xmlns="http://www.w3.org/2000/svg">
<path d="M248.5 515L44.5 363.5L63.5 343.5L256 515H248.5Z" fill="white" stroke="white"/>
<path d="M115.2 136.828L472.14 133.345L430.92 160.001L155.74 161.169L115.2 136.828Z" fill="white"/>
<path d="M210.08 33.5803L249.22 12.7439L287.16 31.9024L338.48 106.965L380.78 134.619L427.24 108.855L472.14 133.345L475.44 141.076L469.24 190.374L465.66 238.015L462.42 283.554L456.78 329.475L453.22 364.478L418.44 391.113L252.98 517.003L206.22 483.444L164.58 451.286L40.8 329.475L36.68 284.488L33.04 240.267L25.42 141.076L66.36 164.058L115.2 136.828L166.42 107.347L210.08 33.5803Z" fill="white"/>
<path d="M25.42 141.076L66.36 164.058L67.54 209.448L27.24 187.146L25.42 141.076Z" fill="#D10016" stroke="#FEFFFE" stroke-width="0.5" stroke-miterlimit="10"/>
<path d="M67.54 166.076L107.42 190.374L109.04 238.249L69.32 214.758L67.54 166.076Z" fill="#D10016" stroke="#FEFFFE" stroke-width="0.5" stroke-miterlimit="10"/>
<path d="M109.84 194.303L150.38 221.342L152.06 268.24L112.9 242.901L109.84 194.303Z" fill="#D10016" stroke="#FEFFFE" stroke-width="0.5" stroke-miterlimit="10"/>
<path d="M153.82 224.571L197.88 251.609L198.42 296.978L155.92 270.152L153.82 224.571Z" fill="#D10016" stroke="#FEFFFE" stroke-width="0.5" stroke-miterlimit="10"/>
<path d="M200.06 255.029L246.38 285.296L245.86 332.003L200.42 302.033L200.06 255.029Z" fill="#D10016" stroke="#FEFFFE" stroke-width="0.5" stroke-miterlimit="10"/>
<path d="M253.5 284.276L298.38 256.006L297.76 301.374L253.42 330.494L253.5 284.276Z" fill="#D10016" stroke="#FEFFFE" stroke-width="0.5" stroke-miterlimit="10"/>
<path d="M300.76 252.714L343.62 227.544L342.38 270.343L299.96 298.889L300.76 252.714Z" fill="#D10016" stroke="#FEFFFE" stroke-width="0.5" stroke-miterlimit="10"/>
<path d="M346.72 224.953L387.26 199.04L384.36 244.111L345.64 268.92L346.72 224.953Z" fill="#D10016" stroke="#FEFFFE" stroke-width="0.5" stroke-miterlimit="10"/>
<path d="M389.52 194.58L430.36 169.771L427.18 216.074L387.96 240.182L389.52 194.58Z" fill="#D10016" stroke="#FEFFFE" stroke-width="0.5" stroke-miterlimit="10"/>
<path d="M435.22 165.417L475.44 141.076L471.04 185.85L431.82 210.658L435.22 165.417Z" fill="#D10016" stroke="#FEFFFE" stroke-width="0.5" stroke-miterlimit="10"/>
<path d="M31.7 192.456L68.7799 215.225L71.16 256.643L33.22 234.447L31.7 192.456Z" fill="#D10016" stroke="#FEFFFE" stroke-width="0.5" stroke-miterlimit="10"/>
<path d="M70.98 218.899L108.42 242.816L111.24 282.938L73.98 260.742L70.98 218.899Z" fill="#D10016" stroke="#FEFFFE" stroke-width="0.5" stroke-miterlimit="10"/>
<path d="M113.42 247.935L153.48 272.552L154.74 314.628L116.36 290.202L113.42 247.935Z" fill="#D10016" stroke="#FEFFFE" stroke-width="0.5" stroke-miterlimit="10"/>
<path d="M156.02 274.867L199.22 301.842L200.16 347.72L157.56 320.066L156.02 274.867Z" fill="#D10016" stroke="#FEFFFE" stroke-width="0.5" stroke-miterlimit="10"/>
<path d="M201.22 306.323L246.38 335.847L246.12 378.645L202.24 352.924L201.22 306.323Z" fill="#D10016" stroke="#FEFFFE" stroke-width="0.5" stroke-miterlimit="10"/>
<path d="M252.18 336.866L296.98 306.323L295.92 350.651L252.18 377.902V336.866Z" fill="#D10016" stroke="#FEFFFE" stroke-width="0.5" stroke-miterlimit="10"/>
<path d="M299.62 303.159L342.38 273.805L340.18 318.982L298.72 346.233L299.62 303.159Z" fill="#D10016" stroke="#FEFFFE" stroke-width="0.5" stroke-miterlimit="10"/>
<path d="M344.5 271.702L383.64 248.126L380.62 292.454L342.64 317.793L344.5 271.702Z" fill="#D10016" stroke="#FEFFFE" stroke-width="0.5" stroke-miterlimit="10"/>
<path d="M386.44 244.77L426.08 220.769L423.04 263.652L383.82 290.202L386.44 244.77Z" fill="#D10016" stroke="#FEFFFE" stroke-width="0.5" stroke-miterlimit="10"/>
<path d="M430.02 216.457L469.24 190.374L465.94 235.976L427.64 261.698L430.02 216.457Z" fill="#D10016" stroke="#FEFFFE" stroke-width="0.5" stroke-miterlimit="10"/>
<path d="M33.04 240.267L70.12 263.355L73.42 303.774L36.86 280.198L33.04 240.267Z" fill="#D10016" stroke="#FEFFFE" stroke-width="0.5" stroke-miterlimit="10"/>
<path d="M75.04 266.371L111.78 289.353L114.84 330.771L77.76 306.323L75.04 266.371Z" fill="#D10016" stroke="#FEFFFE" stroke-width="0.5" stroke-miterlimit="10"/>
<path d="M116.58 294.025L154.98 317.793L157.18 359.869L118.78 335.38L116.58 294.025Z" fill="#D10016" stroke="#FEFFFE" stroke-width="0.5" stroke-miterlimit="10"/>
<path d="M157.82 323.061L199.82 350.715L200.96 392.133L159.42 364.479L157.82 323.061Z" fill="#D10016" stroke="#FEFFFE" stroke-width="0.5" stroke-miterlimit="10"/>
<path d="M202.52 354.835L245.94 382.49V423.823L203.44 398.484L202.52 354.835Z" fill="#D10016" stroke="#FEFFFE" stroke-width="0.5" stroke-miterlimit="10"/>
<path d="M252.18 381.279L296.26 354.835L294.84 399.163L252.18 427.094V381.279Z" fill="#D10016" stroke="#FEFFFE" stroke-width="0.5" stroke-miterlimit="10"/>
<path d="M298.46 350.715L340.18 323.061L337.98 367.388L297.24 395.51L298.46 350.715Z" fill="#D10016" stroke="#FEFFFE" stroke-width="0.5" stroke-miterlimit="10"/>
<path d="M343.62 319.152L381.58 293.834L378.52 339.394L339.92 366.645L343.62 319.152Z" fill="#D10016" stroke="#FEFFFE" stroke-width="0.5" stroke-miterlimit="10"/>
<path d="M384.82 291.2L423.22 265.861L420.36 310.189L381.66 338.311L384.82 291.2Z" fill="#D10016" stroke="#FEFFFE" stroke-width="0.5" stroke-miterlimit="10"/>
<path d="M426.44 263.355L465.66 238.015L461.62 282.343L424.32 308.256L426.44 263.355Z" fill="#D10016" stroke="#FEFFFE" stroke-width="0.5" stroke-miterlimit="10"/>
<path d="M36.6801 284.489L73.9401 308.256L77.1001 349.61L40.3601 325.843L36.6801 284.489Z" fill="#D10016" stroke="#FEFFFE" stroke-width="0.5" stroke-miterlimit="10"/>
<path d="M76.66 311.633L114.96 336.144L117.66 377.477L79.28 353.051L76.66 311.633Z" fill="#D10016" stroke="#FEFFFE" stroke-width="0.5" stroke-miterlimit="10"/>
<path d="M118.56 340.753L156.94 366.093L158.62 406.13L121.34 380.791L118.56 340.753Z" fill="#D10016" stroke="#FEFFFE" stroke-width="0.5" stroke-miterlimit="10"/>
<path d="M160.36 369.895L201.58 397.549L202.02 437.586L161.48 410.548L160.36 369.895Z" fill="#D10016" stroke="#FEFFFE" stroke-width="0.5" stroke-miterlimit="10"/>
<path d="M204.14 401.287L245.86 428.326V470.933L204.76 439.859L204.14 401.287Z" fill="#D10016" stroke="#FEFFFE" stroke-width="0.5" stroke-miterlimit="10"/>
<path d="M252.26 429.303L295.66 399.546L294.58 440.879L252.26 471.953V429.303Z" fill="#D10016" stroke="#FEFFFE" stroke-width="0.5" stroke-miterlimit="10"/>
<path d="M297.84 396.487L337.9 369.81L336.04 412.608L296.22 439.073L297.84 396.487Z" fill="#D10016" stroke="#FEFFFE" stroke-width="0.5" stroke-miterlimit="10"/>
<path d="M341.04 366.008L377.78 340.668L375.84 384.126L338.44 410.378L341.04 366.008Z" fill="#D10016" stroke="#FEFFFE" stroke-width="0.5" stroke-miterlimit="10"/>
<path d="M381.04 337.759L419.44 312.037L417.24 354.92L378.84 381.47L381.04 337.759Z" fill="#D10016" stroke="#FEFFFE" stroke-width="0.5" stroke-miterlimit="10"/>
<path d="M422.66 310.189L462.42 283.554L456.88 328.413L420.22 355.069L422.66 310.189Z" fill="#D10016" stroke="#FEFFFE" stroke-width="0.5" stroke-miterlimit="10"/>
<path d="M40.8 329.475L76.84 353.051L79.9801 389.393L44.42 363.289L40.8 329.475Z" fill="#D10016" stroke="#FEFFFE" stroke-width="0.5" stroke-miterlimit="10"/>
<path d="M81.12 356.853L120.16 382.193L121.84 420.998L83.46 391.963L81.12 356.853Z" fill="#D10016" stroke="#FEFFFE" stroke-width="0.5" stroke-miterlimit="10"/>
<path d="M123.02 387.035L159.76 411.461L161.62 449.098L123.84 421.444L123.02 387.035Z" fill="#D10016" stroke="#FEFFFE" stroke-width="0.5" stroke-miterlimit="10"/>
<path d="M162.76 414.881L203.3 440.22L204.04 481.553L164.58 451.286L162.76 414.881Z" fill="#D10016" stroke="#FEFFFE" stroke-width="0.5" stroke-miterlimit="10"/>
<path d="M205.62 444.107L246.16 474.374L245.86 517.003L206.22 483.444L205.62 444.107Z" fill="#D10016" stroke="#FEFFFE" stroke-width="0.5" stroke-miterlimit="10"/>
<path d="M252.98 471.953L295.14 442.302L293.62 485.1L252.98 517.003V471.953Z" fill="#D10016" stroke="#FEFFFE" stroke-width="0.5" stroke-miterlimit="10"/>
<path d="M296.72 438.415L336.78 413.075L335.86 451.86L295.98 482.127L296.72 438.415Z" fill="#D10016" stroke="#FEFFFE" stroke-width="0.5" stroke-miterlimit="10"/>
<path d="M339.22 410.378L376.5 386.589L374.82 423.165L338.24 451.095L339.22 410.378Z" fill="#D10016" stroke="#FEFFFE" stroke-width="0.5" stroke-miterlimit="10"/>
<path d="M379.02 382.447L417.42 355.791L416.42 391.198L377.2 421.444L379.02 382.447Z" fill="#D10016" stroke="#FEFFFE" stroke-width="0.5" stroke-miterlimit="10"/>
<path d="M420.64 354.835L456.78 329.475L453.22 364.478L418.44 391.113L420.64 354.835Z" fill="#D10016" stroke="#FEFFFE" stroke-width="0.5" stroke-miterlimit="10"/>
<path d="M67.54 164.058L115.2 136.828L155.74 161.169L108.08 189.27L67.54 164.058Z" fill="#D10016" stroke="#FEFFFE" stroke-width="0.5" stroke-miterlimit="10"/>
<path d="M110.36 191.288L157.82 164.058L201.22 189.27L153.56 218.9L110.36 191.288Z" fill="#D10016" stroke="#FEFFFE" stroke-width="0.5" stroke-miterlimit="10"/>
<path d="M156.36 221.554L203.82 191.925L246.12 219.579L200.96 249.846L156.36 221.554Z" fill="#D10016" stroke="#FEFFFE" stroke-width="0.5" stroke-miterlimit="10"/>
<path d="M210.08 33.5803L249.22 12.7439L287.16 31.9024L247.42 54.9053L210.08 33.5803Z" fill="#D10016" stroke="#FEFFFE" stroke-width="0.5" stroke-miterlimit="10"/>
<path d="M208.22 82.5385L247.36 57.4116L291.68 82.5385L249.48 105.52L208.22 82.5385Z" fill="#D10016" stroke="#FEFFFE" stroke-width="0.5" stroke-miterlimit="10"/>
<path d="M166.42 107.347L204.44 83.4944L246.74 107.347L206.96 131.879L166.42 107.347Z" fill="#D10016" stroke="#FEFFFE" stroke-width="0.5" stroke-miterlimit="10"/>
<path d="M209.24 134.279L248.38 109.768L291.68 134.279L250.44 158.79L209.24 134.279Z" fill="#D10016" stroke="#FEFFFE" stroke-width="0.5" stroke-miterlimit="10"/>
<path d="M251.04 160.001L293.34 135.49L338.24 162.507L297.02 188.42L251.04 160.001Z" fill="#D10016" stroke="#FEFFFE" stroke-width="0.5" stroke-miterlimit="10"/>
<path d="M252.9 107.347L293.84 84.3652L335.04 107.347L293.84 132.453L252.9 107.347Z" fill="#D10016" stroke="#FEFFFE" stroke-width="0.5" stroke-miterlimit="10"/>
<path d="M296.18 133.621L338.48 106.965L380.78 134.619L341.02 161.254L296.18 133.621Z" fill="#D10016" stroke="#FEFFFE" stroke-width="0.5" stroke-miterlimit="10"/>
<path d="M386.22 135.49L427.24 108.855L472.14 133.345L430.92 160.001L386.22 135.49Z" fill="#D10016" stroke="#FEFFFE" stroke-width="0.5" stroke-miterlimit="10"/>
<path d="M384 135.5L248.5 57L288 32L428 108L384 135.5Z" fill="white" stroke="white"/>
<path d="M26.5 140L210 33.5L254.5 56L136 126.5L67.5 164L26.5 140Z" fill="white" stroke="white"/>
</svg>
