<svg xmlns="http://www.w3.org/2000/svg" width="77" height="64" fill="none" viewBox="3.5 92 77 64">
<!-- SVG created with Arrow, by QuiverAI (https://quiver.ai) -->
<style>
  .session-animate-blink {
    transform-box: fill-box;
    transform-origin: center;
  }
  svg:hover .session-animate-blink {
    animation: session-blink 4s infinite;
  }
  @keyframes session-blink {
    0%,
    4%,
    100% {
      transform: scaleY(1);
    }
    2% {
      transform: scaleY(0.1);
    }
  }
</style>
  <path d="m18.73 101.3c-5.44 0-7.47 4.47-7.47 10.46v5.28c0 4.28-0.75 6.68-3.97 7.93 2.91 1.41 3.97 3.6 3.97 7.41v7.45c0 4.87 3.03 7.89 7.17 7.89" stroke="#FFFFFF" stroke-linecap="round" stroke-linejoin="round" stroke-width="3.2"/>
  <path d="m39.59 101.4c3.75-0.15 6.25 2.42 7.3 8l0.73 3.09 4.09 5.78c0.4 1.3-0.4 2.14-2.17 2.14h-2.2v3.64c-8.33 1.35-13.28 4.08-14.56 7.3 2.19 3.82 7 5.89 14.04 7.02-0.98 6.45-3.39 9.18-7.51 9.15" stroke="#FFFFFF" stroke-linecap="round" stroke-linejoin="round" stroke-width="3.2"/>
  <path class="session-animate-blink" d="m25.17 114.2c1.51-2.79 3.35-2.98 4.88-2.98 2.09 0 3.29 0.65 4.43 2.46" stroke="#FFFFFF" stroke-linecap="round" stroke-linejoin="round" stroke-width="3.2"/>
  <path d="m59.25 120.4c4.36 4.62 3.49 12.17-0.64 15.57" stroke="#FF784E" stroke-linecap="round" stroke-linejoin="round" stroke-width="3.2"/>
  <path d="m64.66 115.1c6.5 6.55 6 19.48 0 26.23" stroke="#FF784E" stroke-linecap="round" stroke-linejoin="round" stroke-width="3.2"/>
  <path d="m70.58 109.1c9.54 10.27 10.61 26.1 0.13 37.79" stroke="#FF784E" stroke-linecap="round" stroke-linejoin="round" stroke-width="3.2"/>
</svg>
